<svg version="1" xmlns="http://www.w3.org/2000/svg" width="682.667" height="682.667" viewBox="0 0 512.000000 512.000000"><path d="M41.5 1C23.2 4.8 8.5 18 2.4 36 .6 41.3.5 49.4.5 256s.1 214.7 1.9 220c5.2 15.4 16.8 27.4 32.2 33.2l5.9 2.3h431l5.9-2.3c15.4-5.8 27-17.8 32.2-33.2 1.8-5.3 1.9-13.4 1.9-220s-.1-214.7-1.9-220c-5.2-15.4-16.8-27.4-32.2-33.2L471.5.5l-213-.1C141.3.3 43.7.6 41.5 1zm124.6 125.6c10.9 1.9 24.3 6.6 32.4 11.5 16.3 9.8 30.2 28.3 36.4 48.4 2.4 7.6 5.1 23.1 4.3 24-.3.3-7.8.5-16.8.5h-16.2l-1.7-7.8c-6.4-28.6-17.9-42.5-40.1-48.2-9.4-2.4-24.7-2.6-34.8-.5-28.1 5.9-46.4 30.1-51.5 67.8-1.4 10.2-1.4 58.2 0 68.4 1.7 13.1 4.8 23.3 10 34.1 8.9 18.3 22.9 30 40.4 33.7 15 3.2 34.4 1.1 47.2-4.9 15.9-7.6 23.7-20.1 29.7-47.9l.6-2.7h34l-.4 2.2c-4.3 20.7-6.8 28.6-11.9 37.8-14.9 26.7-38.4 40.8-73.7 44.1-48.1 4.6-85.4-19-102.7-65-6.9-18.3-8.6-34.1-8-72.2.4-26 .8-31.8 2.6-39.9 8.6-38.9 29.2-65.5 60.6-78.1 6.5-2.6 17.1-5.3 24-6.2 8-1 27-.6 35.6.9zM392 129c25.8 2.1 47.1 11.8 60.4 27.3 6.1 7.1 12.2 18.8 14.8 28.3 3 11.3 3.1 33.4 0 44.9-3.6 13.2-8.5 21.9-17.7 31-6.4 6.4-9.9 9-17.5 12.8-18.3 9.1-30.1 10.7-77.2 10.7H320v100h-34V128h47.3c25.9 0 52.4.5 58.7 1z"/><path d="M320 205.9V256h35.8c39.2 0 44.5-.6 55.6-5.8 12.3-5.8 20.2-16.1 23.1-29.9 5.3-25-4.1-47.7-24.1-57.7-11.2-5.6-14-5.9-53.6-6.4l-36.8-.4v50.1z"/></svg>